<svg xmlns="http://www.w3.org/2000/svg" width="30" height="30" class="modal-icons item-icon" data-test-id="billing"><g fill="none" fill-rule="evenodd" stroke-linejoin="round"><g stroke="#6f7c87"><rect width="27.125" height="17.693" x="1.438" y="1.438" rx="1.35"></rect><path fill="#dadfe3" fill-rule="nonzero" d="M1.438 4.973h27.125v3.535H1.438z"></path><path stroke-linecap="round" d="M18.3 15.586h2.363m-7.09 0h2.362m-7.078 0h2.354m-7.072 0h2.354"></path></g><g fill="#fe9" fill-rule="nonzero" stroke="#e67e39"><path stroke-linecap="round" d="M16.62 14.563h4.944a7 7 0 110 14H16.62m2.475-14a7 7 0 110 14"></path><circle cx="16.619" cy="21.563" r="7"></circle><path stroke-linecap="round" d="M14.71 23.155a1.75 1.75 0 001.907 1.592 1.75 1.75 0 001.881-1.592 1.75 1.75 0 00-1.907-1.593 1.75 1.75 0 01-1.908-1.593 1.75 1.75 0 011.908-1.592A1.75 1.75 0 0118.5 19.97m-1.88-2.222v7.63"></path></g></g></svg>